<svg viewBox="0 0 36 28" xmlns="http://www.w3.org/2000/svg"><path d="M34 28h-4.031v-.004A1.997 1.997 0 0128 26a2 2 0 012-2.001h1a1 1 0 001-1V9a1 1 0 00-1-1h-6.657l-1.171-1.172-2.829-2.829h-4.686l-2.829 2.829L11.657 8H5a1 1 0 00-1 1v13.999a1 1 0 001 1h1A2 2 0 016 28H2a2 2 0 01-2-2V6a2 2 0 012-2.001h8L13.414.585A2 2 0 0114.828 0h6.343a2 2 0 011.415.585L26 3.999h8A2 2 0 0136 6v20a2 2 0 01-2 2zM18 10c3.726 0 6.849 2.551 7.738 6h-4.294c-.694-1.19-1.97-2-3.444-2-2.206 0-4 1.794-4 4a4.004 4.004 0 004 3.999c1.474 0 2.749-.809 3.443-1.999h4.295c-.89 3.448-4.012 6-7.738 6a8 8 0 010-16z" fill="#fff" fill-rule="evenodd"/></svg>